<?xml version="1.0" standalone="no"?>
<!DOCTYPE svg PUBLIC "-//W3C//DTD SVG 20010904//EN"
 "http://www.w3.org/TR/2001/REC-SVG-20010904/DTD/svg10.dtd">
<svg version="1.0" xmlns="http://www.w3.org/2000/svg"
 width="700.000000pt" height="700.000000pt" viewBox="0 0 700.000000 700.000000"
 preserveAspectRatio="xMidYMid meet">
<metadata>
Created by potrace 1.14, written by Peter Selinger 2001-2017
</metadata>
<g transform="translate(0.000000,700.000000) scale(0.100000,-0.100000)"
fill="#000000" stroke="none">
<path d="M3840 5178 c0 -5 27 -62 61 -128 l61 -121 82 7 c149 12 422 7 617
-12 50 -4 56 -3 67 18 14 28 71 131 107 193 15 25 25 46 23 46 -1 1 -51 2
-110 3 -92 1 -108 -1 -108 -14 0 -9 -13 -31 -28 -50 -23 -26 -36 -33 -64 -33
-48 0 -87 27 -95 63 -3 17 -8 31 -12 31 -3 1 -47 2 -98 4 l-92 2 -6 -28 c-8
-37 -59 -77 -94 -74 -41 3 -79 32 -91 69 l-10 33 -105 -1 c-58 0 -105 -4 -105
-8z"/>
<path d="M1310 4883 c-241 -43 -409 -234 -412 -469 -2 -139 46 -257 143 -353
79 -78 158 -117 273 -135 76 -12 76 -13 91 -101 2 -16 18 -89 34 -162 17 -72
32 -142 35 -155 2 -12 20 -98 40 -189 20 -91 36 -174 36 -183 0 -12 20 3 58
42 40 42 72 65 107 78 31 11 63 32 83 55 l33 37 -30 124 c-17 67 -53 218 -81
333 -27 116 -58 235 -67 265 -17 56 -22 156 -11 262 3 38 1 64 -7 75 -16 22
-55 25 -56 4 -4 -76 -19 -118 -55 -155 -59 -61 -147 -69 -229 -21 -79 45 -116
165 -76 243 42 82 101 116 197 114 56 -1 61 0 77 27 28 48 84 90 142 106 30 9
59 14 64 11 5 -4 12 -2 15 3 7 11 -67 74 -116 101 -75 40 -201 59 -288 43z"/>
<path d="M4047 4884 c-2 -2 -50 -6 -108 -9 -234 -11 -249 -15 -249 -65 0 -63
21 -244 30 -253 4 -5 25 10 46 32 29 30 49 42 76 45 100 12 188 -58 212 -166
l6 -27 -42 28 c-88 59 -219 74 -397 45 -47 -7 -132 -12 -190 -11 -87 2 -114 6
-153 25 -70 35 -94 85 -73 151 l7 24 -31 -22 c-83 -59 -93 -193 -20 -276 44
-50 118 -77 225 -83 102 -5 152 6 299 68 109 45 133 52 209 56 78 4 133 -24
142 -72 15 -80 -78 -123 -182 -84 -16 6 -48 29 -70 52 -32 30 -44 37 -50 26
-5 -7 -7 -69 -6 -138 3 -131 10 -153 50 -146 28 5 264 30 390 41 52 5 82 9
152 22 14 2 57 20 97 38 151 73 251 224 238 363 -4 44 12 41 21 -5 24 -129
-15 -248 -108 -328 -65 -55 -237 -129 -348 -149 -14 -2 -54 -11 -90 -20 -36
-8 -119 -27 -185 -41 -255 -56 -384 -120 -520 -261 -120 -124 -175 -254 -189
-443 -2 -32 2 -70 18 -159 16 -83 80 -202 153 -278 79 -84 181 -142 298 -168
26 -6 23 -2 -21 28 -136 92 -224 265 -229 446 -5 235 124 422 369 535 39 19
188 73 331 120 289 96 377 133 458 193 87 65 152 158 171 247 3 17 9 41 12 55
12 56 10 192 -3 261 -16 90 -58 180 -107 234 l-36 40 16 -33 c25 -52 23 -132
-4 -170 -34 -47 -107 -55 -147 -16 -23 24 -18 35 10 22 40 -18 92 11 100 56
16 82 -27 139 -121 162 -29 8 -450 15 -457 8z m65 -63 c29 -6 69 -13 88 -16
83 -14 95 -17 104 -25 6 -6 -5 -8 -25 -6 -47 5 -114 -7 -114 -19 -5 -90 -93
-79 -138 17 -14 29 -28 64 -32 77 l-7 24 35 -20 c19 -12 59 -26 89 -32z"/>
<path d="M1893 4769 c-52 -10 -80 -23 -118 -60 -20 -19 -45 -30 -74 -34 -114
-14 -202 -111 -192 -211 1 -7 16 -4 41 8 50 25 97 18 131 -18 23 -25 24 -30
21 -167 -3 -170 11 -229 88 -357 92 -152 103 -186 75 -239 -15 -31 -67 -66
-79 -54 -12 12 -6 -18 10 -50 24 -47 78 -91 137 -113 47 -17 83 -19 402 -20
193 0 370 -4 395 -8 130 -20 229 -66 262 -122 11 -19 23 -34 27 -32 88 40 143
76 147 98 38 175 101 298 214 410 71 71 101 93 180 132 52 25 110 49 127 53
18 4 36 11 39 17 4 6 3 8 -2 5 -5 -3 -73 -8 -149 -12 -77 -3 -180 -8 -230 -10
-49 -2 -155 -7 -235 -11 -80 -3 -161 -7 -180 -9 -19 -2 -80 -6 -135 -10 -55
-3 -120 -8 -145 -10 -125 -11 -272 -19 -333 -20 -85 0 -94 10 -127 138 -35
134 -33 162 15 204 22 20 57 51 77 70 163 152 64 414 -157 415 -35 0 -68 -2
-74 -6 -6 -4 -21 -2 -33 5 -36 20 -80 26 -125 18z m279 -106 c31 -28 46 -64
43 -104 -3 -45 -25 -79 -65 -102 l-31 -19 8 29 c16 56 9 147 -15 187 -12 20
-22 39 -22 41 0 9 65 -16 82 -32z m-244 -11 c53 -34 71 -131 36 -192 -24 -39
-36 -34 -40 18 -4 57 -46 132 -92 162 l-37 24 30 7 c36 7 72 1 103 -19z"/>
<path d="M4780 4779 c0 -4 11 -26 24 -50 38 -69 58 -171 58 -284 -1 -123 -7
-164 -39 -255 -46 -128 -134 -220 -285 -296 -37 -19 -192 -75 -343 -125 -344
-113 -445 -163 -544 -268 -81 -86 -123 -199 -122 -330 1 -97 18 -175 56 -248
47 -90 162 -199 250 -235 89 -37 94 -35 47 16 -114 124 -152 245 -130 411 9
62 38 151 60 180 95 127 176 176 508 305 356 139 390 158 485 263 104 115 149
257 148 462 -1 135 -17 213 -64 309 -26 53 -109 163 -109 145z"/>
<path d="M5548 4763 c-123 -41 -199 -169 -168 -285 15 -53 62 -122 99 -144 25
-15 30 -25 36 -77 7 -70 41 -150 91 -218 58 -79 62 -79 159 -8 l85 61 -20 27
c-80 104 -108 163 -115 245 -9 97 40 208 122 275 l37 31 -24 25 c-64 68 -206
100 -302 68z"/>
<path d="M6123 4766 c-50 -16 -124 -58 -143 -81 -12 -15 -12 -18 4 -27 78 -44
149 -164 148 -252 -1 -68 -6 -87 -39 -148 -43 -80 -140 -171 -338 -318 -255
-189 -343 -278 -413 -416 -201 -399 64 -843 507 -846 93 -1 149 8 215 33 28
10 52 19 54 19 11 0 -42 -44 -90 -74 -133 -84 -275 -116 -493 -111 -234 5
-362 51 -485 175 -97 97 -169 250 -184 395 -2 28 -5 51 -5 52 -1 1 -27 -13
-58 -31 -32 -17 -94 -49 -138 -70 -186 -88 -212 -103 -262 -152 -58 -58 -74
-100 -74 -197 0 -91 30 -172 116 -317 106 -178 143 -280 160 -437 22 -209 93
-332 232 -402 90 -45 161 -54 393 -48 118 3 225 8 237 11 27 6 30 3 38 -54 4
-25 8 -47 10 -51 12 -18 39 -221 38 -284 0 -94 -2 -100 -34 -119 -41 -24 -212
-34 -249 -14 -26 14 -48 51 -75 131 -20 58 -54 100 -109 135 -35 22 -52 26
-116 26 -78 0 -121 -15 -168 -58 -34 -30 -62 -90 -64 -134 -1 -27 -10 -47 -35
-75 -19 -21 -39 -50 -44 -65 -17 -42 -12 -120 9 -163 16 -32 18 -46 9 -82 -24
-107 45 -216 155 -245 l38 -10 -15 28 c-24 46 -19 85 16 119 17 17 38 32 47
32 61 5 93 -5 175 -52 74 -43 99 -52 151 -56 71 -6 102 2 223 58 129 61 197
68 274 29 49 -26 74 -63 74 -112 l0 -39 34 6 c103 19 170 85 211 205 19 54 23
88 23 200 1 117 -8 336 -18 465 -4 65 -18 228 -20 250 -1 11 -5 61 -10 110 -4
50 -9 100 -10 112 -2 18 7 27 41 44 103 49 150 172 108 279 l-16 40 -37 -28
c-40 -32 -53 -38 -128 -58 -171 -45 -467 -51 -617 -11 l-49 13 -18 66 c-22 79
-47 125 -103 192 -29 36 -35 48 -21 42 68 -26 137 -45 185 -51 60 -8 270 -8
310 0 13 2 42 7 65 11 232 34 467 172 612 360 72 93 129 227 158 369 12 59 12
194 0 261 -33 185 -129 320 -321 449 -90 61 -72 64 -199 -28 l-67 -49 83 -46
c109 -62 201 -152 241 -238 94 -200 18 -419 -179 -516 -55 -27 -78 -32 -149
-35 -141 -4 -252 43 -332 142 -106 132 -109 332 -5 483 44 64 111 127 240 223
54 40 141 104 193 143 190 142 288 262 306 378 6 33 19 53 69 102 69 68 85
108 79 195 -4 58 -19 92 -63 139 -66 71 -199 107 -288 78z m-1146 -3626 c26
-16 44 -46 53 -87 6 -24 5 -30 -6 -26 -8 3 -14 8 -14 12 0 13 -75 49 -113 54
-20 3 -54 1 -74 -4 -21 -4 -39 -6 -41 -5 -8 8 51 65 71 68 40 7 103 1 124 -12z
m-36 -228 c29 -16 48 -43 60 -84 l8 -28 -36 27 c-29 22 -49 28 -102 31 -58 3
-71 1 -103 -22 l-38 -25 0 22 c0 13 12 38 28 56 41 50 119 60 183 23z"/>
<path d="M4962 4615 c24 -37 50 -198 50 -305 -1 -345 -133 -558 -417 -673
-113 -46 -134 -54 -270 -103 -373 -132 -495 -253 -507 -504 -6 -145 93 -312
228 -383 29 -15 55 -27 58 -27 4 0 -7 20 -24 45 -60 87 -87 218 -64 310 22 93
125 218 227 278 26 15 146 73 267 127 199 90 318 155 375 207 36 32 110 127
133 170 26 48 60 144 67 188 3 16 8 44 12 60 10 49 11 206 2 270 -9 62 -10 68
-23 125 -11 46 -71 169 -99 201 -12 14 -19 20 -15 14z"/>
<path d="M5145 4340 c3 -25 8 -58 11 -75 3 -16 6 -66 6 -110 3 -254 -62 -443
-202 -583 -92 -92 -160 -131 -543 -311 -168 -78 -262 -155 -309 -250 -19 -38
-23 -62 -23 -136 1 -101 25 -170 84 -237 29 -33 116 -86 126 -77 2 3 -6 31
-17 64 -26 77 -22 190 10 250 47 89 83 115 344 248 114 58 236 125 271 150
152 108 253 268 304 477 14 57 18 114 18 235 0 172 -10 229 -60 342 l-25 58 5
-45z"/>
<path d="M1129 3865 c-6 -27 -34 -142 -61 -255 -27 -113 -51 -212 -53 -220 -2
-8 -12 -54 -24 -102 -11 -48 -23 -98 -25 -110 -2 -13 -23 -99 -46 -193 -22
-93 -54 -226 -70 -295 -17 -69 -52 -217 -79 -330 -27 -113 -72 -304 -101 -425
-29 -121 -70 -294 -92 -385 -22 -91 -41 -172 -43 -180 -13 -58 -52 -224 -91
-385 -25 -104 -47 -197 -49 -206 -2 -9 -15 -65 -30 -125 -35 -143 -33 -134
-41 -171 -3 -18 -3 -33 1 -33 4 0 69 48 146 107 l138 107 26 110 c15 61 28
118 30 126 2 8 24 105 50 215 26 110 48 209 51 220 2 11 6 29 8 40 2 11 18 79
36 150 17 72 40 171 51 220 11 50 22 97 24 105 2 8 23 96 46 195 l42 180 68
48 c38 27 69 56 70 65 0 9 2 24 4 32 8 35 78 333 100 425 38 161 87 369 90
385 2 8 22 96 45 195 44 192 46 230 14 334 -8 25 -17 66 -20 91 -3 25 -8 47
-10 49 -3 3 -47 19 -99 36 l-94 30 -12 -50z"/>
<path d="M1949 3326 c-56 -15 -105 -48 -124 -87 -10 -19 -23 -29 -38 -29 -40
0 -121 -49 -152 -93 -25 -35 -30 -52 -31 -105 -1 -56 -4 -66 -32 -95 -36 -37
-62 -94 -62 -134 0 -67 42 -147 90 -173 15 -8 17 -4 16 34 -1 53 21 81 69 90
50 10 95 -14 145 -75 76 -93 171 -176 276 -239 137 -83 166 -116 158 -183 -3
-33 -19 -54 -56 -77 -26 -15 -26 -18 -12 -38 27 -40 72 -55 136 -48 83 8 133
41 278 182 179 174 219 210 300 275 140 111 274 151 346 104 16 -10 30 -13 37
-7 7 5 42 32 79 61 l67 52 -79 79 c-60 60 -87 97 -119 162 -44 90 -69 173 -72
243 -2 25 -6 50 -10 56 -9 15 -253 -140 -299 -191 -3 -3 -27 -23 -55 -45 -27
-22 -110 -93 -185 -159 -74 -65 -152 -127 -172 -137 -44 -23 -70 -16 -124 33
-88 80 -112 134 -94 215 12 50 14 110 6 149 -25 128 -159 213 -287 180z m51
-111 c56 -29 78 -112 46 -171 l-15 -29 -1 26 c-1 57 -93 159 -145 159 -14 0
-15 3 -5 15 16 20 82 19 120 0z m-162 -196 c29 -18 52 -62 52 -98 l0 -32 -34
34 c-38 39 -92 56 -160 51 -44 -4 -45 -3 -34 16 28 45 125 61 176 29z"/>
<path d="M1690 2672 c-34 -11 -34 -13 11 -221 16 -74 35 -138 41 -142 7 -4 24
-17 37 -28 13 -12 27 -21 30 -21 20 -1 55 -46 61 -78 4 -20 17 -77 29 -127 11
-49 29 -126 40 -170 10 -44 55 -237 100 -430 127 -549 183 -790 185 -791 0 0
23 -18 49 -39 l48 -38 -7 28 c-10 40 -11 66 -3 103 5 22 2 46 -8 69 -24 58
-25 148 -2 202 11 25 29 55 40 67 24 26 24 25 -7 153 -14 58 -28 117 -30 131
-3 14 -13 61 -24 105 -10 44 -42 181 -71 305 -28 124 -69 302 -91 395 -21 94
-42 184 -45 202 -4 26 -17 39 -67 69 -33 21 -108 85 -166 144 -107 108 -124
121 -150 112z"/>
<path d="M3968 2545 c-2 -1 -39 -5 -83 -9 -109 -8 -154 -14 -270 -37 -324 -65
-416 -156 -410 -409 3 -99 11 -205 20 -260 3 -14 7 -65 11 -115 3 -49 8 -108
10 -130 2 -22 7 -144 10 -272 9 -315 11 -311 -166 -320 -126 -6 -146 6 -178
103 -47 141 -114 197 -236 198 -130 1 -223 -72 -234 -186 -4 -39 -11 -57 -28
-70 -12 -10 -32 -39 -44 -64 -26 -52 -24 -128 4 -182 14 -26 14 -39 5 -75 -20
-80 21 -173 97 -221 43 -27 106 -37 86 -13 -35 41 -12 126 39 147 61 26 99 18
194 -40 126 -77 205 -79 350 -10 97 46 175 69 215 63 66 -10 100 -26 130 -60
27 -30 31 -42 28 -75 l-4 -39 36 6 c123 22 202 116 230 275 11 58 8 469 -5
668 -1 29 0 54 4 56 3 2 23 7 44 10 118 19 184 105 178 234 -1 21 -2 22 -29 8
-70 -36 -137 -29 -168 20 -20 30 -28 151 -10 157 6 2 83 5 171 7 133 2 264 5
369 9 16 1 15 4 -8 22 -70 55 -81 179 -20 226 13 10 8 25 -36 113 -67 134
-126 224 -161 244 -24 14 -130 30 -141 21z m-1288 -1405 c24 -13 48 -53 55
-90 l6 -31 -38 30 c-54 43 -128 57 -192 36 -41 -13 -12 41 32 61 33 14 105 11
137 -6z m-37 -227 c30 -18 75 -88 64 -99 -3 -3 -20 5 -37 18 -26 19 -44 23
-105 23 -61 0 -79 -4 -104 -23 -26 -19 -31 -20 -31 -6 0 13 36 84 43 84 1 0
20 7 42 14 47 17 86 13 128 -11z"/>
<path d="M4235 2490 c-4 -6 4 -27 16 -48 12 -20 51 -93 85 -162 l63 -124 -28
-12 c-31 -13 -46 -42 -42 -87 5 -77 71 -133 164 -141 l58 -4 -5 56 c-8 78 -14
105 -38 176 -36 104 -157 310 -201 341 -25 17 -63 20 -72 5z"/>
</g>
</svg>
